<?xml version="1.0" standalone="no"?>
<!DOCTYPE svg PUBLIC "-//W3C//DTD SVG 20010904//EN"
 "http://www.w3.org/TR/2001/REC-SVG-20010904/DTD/svg10.dtd">
<svg version="1.0" xmlns="http://www.w3.org/2000/svg"
 width="450.000000pt" height="580.000000pt" viewBox="0 0 450.000000 580.000000"
 preserveAspectRatio="xMidYMid meet">

<g transform="translate(0.000000,580.000000) scale(0.100000,-0.100000)"
fill="#000000" stroke="none">
<path d="M0 2900 l0 -2900 2250 0 2250 0 0 2900 0 2900 -2250 0 -2250 0 0
-2900z m2440 2370 c0 -5 -9 -10 -20 -10 -11 0 -20 5 -20 10 0 6 9 10 20 10 11
0 20 -4 20 -10z m354 -41 c22 -6 61 -13 86 -15 24 -1 54 -8 65 -13 11 -6 66
-29 123 -51 122 -48 188 -80 258 -126 28 -19 56 -34 63 -34 26 0 221 -152 221
-172 0 -3 19 -25 43 -49 68 -70 161 -180 194 -229 102 -152 165 -266 199 -362
7 -22 22 -51 32 -66 26 -36 31 -56 41 -154 5 -45 21 -135 35 -198 14 -63 28
-149 31 -190 3 -41 8 -100 11 -131 14 -159 -36 -487 -102 -664 -14 -38 -29
-79 -32 -90 -3 -11 -20 -47 -37 -80 -54 -102 -65 -119 -113 -171 l-22 -25 -9
23 c-9 22 -9 22 -17 4 -5 -13 -3 -21 4 -24 20 -6 13 -28 -13 -40 -14 -7 -30
-23 -35 -37 -5 -14 -14 -25 -19 -25 -5 0 -12 -11 -15 -25 -4 -14 -11 -25 -17
-25 -14 0 -66 -55 -74 -79 -3 -11 -15 -23 -26 -26 -10 -4 -19 -10 -19 -15 0
-4 -10 -10 -22 -14 -13 -3 -29 -19 -36 -35 -7 -17 -22 -33 -33 -36 -27 -9 -89
-66 -89 -82 0 -7 -4 -13 -10 -13 -5 0 -7 -6 -4 -14 5 -14 -12 -25 -151 -96
-44 -23 -87 -45 -95 -50 -91 -54 -391 -168 -510 -194 -94 -20 -307 -46 -376
-46 -154 0 -227 49 -228 156 l-1 41 145 6 c247 10 475 62 655 150 470 229 793
640 907 1152 19 86 22 130 23 320 0 194 -3 233 -24 329 -66 308 -207 577 -415
794 -272 282 -544 424 -956 497 -14 3 2 -8 35 -23 80 -38 155 -99 194 -158 30
-45 32 -55 29 -116 -2 -36 1 -66 6 -65 18 4 26 -61 20 -158 -6 -87 -11 -109
-41 -170 -44 -88 -54 -100 -64 -84 -14 23 -57 -7 -78 -53 -19 -44 -44 -108
-55 -142 -5 -13 -12 -17 -29 -12 -12 3 -30 6 -39 6 -10 0 -18 6 -18 14 0 17
32 26 52 15 13 -7 19 2 33 44 30 93 124 267 196 360 24 32 24 33 -12 42 -21 5
-27 2 -37 -20 -20 -43 -85 -65 -226 -75 -114 -8 -260 0 -275 16 -3 3 2 10 12
15 9 6 17 14 17 18 0 9 -37 8 -46 -2 -4 -4 -17 -7 -30 -7 -12 0 -24 -5 -26
-11 -6 -17 -73 -13 -106 7 -17 9 -36 28 -43 41 -12 22 -43 31 -53 15 -3 -5 21
-62 53 -128 32 -65 68 -146 79 -179 24 -72 38 -158 23 -135 -9 12 -11 11 -11
-6 0 -18 -5 -20 -27 -17 l-28 5 32 -21 c17 -11 37 -30 44 -43 9 -17 4 -14 -18
10 -17 17 -39 32 -50 32 -23 1 -93 39 -73 40 8 0 0 7 -19 15 -32 14 -33 16
-19 38 18 26 67 34 110 16 16 -6 31 -9 34 -7 8 8 -27 91 -47 112 -21 23 -59
15 -39 -9 6 -8 10 -20 8 -27 -9 -24 -73 118 -88 193 -9 46 3 194 19 234 10 24
14 27 22 15 9 -13 10 -13 8 0 -1 8 -1 44 0 79 l1 63 73 73 c76 77 144 118 242
146 l60 18 -74 0 c-205 2 -480 -68 -700 -178 l-79 -40 -5 28 c-6 31 -29 45
-58 36 -21 -7 -26 -35 -6 -36 10 0 10 -2 0 -6 -7 -2 -13 -21 -13 -41 0 -33 -6
-41 -48 -69 -74 -50 -200 -165 -269 -245 -580 -667 -535 -1648 102 -2256 111
-106 242 -200 380 -273 44 -23 90 -48 102 -55 l22 -14 -22 -41 c-24 -46 -57
-63 -102 -55 l-30 6 24 -20 c39 -33 4 -24 -124 32 l-120 53 -144 140 c-185
181 -291 299 -367 410 -46 68 -139 235 -139 250 0 6 -6 15 -12 20 -11 8 -22
44 -48 152 -3 10 -12 43 -21 73 -9 30 -22 80 -29 111 -7 31 -20 79 -29 105 -8
27 -15 58 -14 69 1 11 -2 39 -6 63 -6 32 -5 42 6 42 9 0 9 3 2 8 -6 4 -11 23
-12 42 0 19 -5 55 -10 80 l-9 45 -2 -37 c-2 -59 -17 -44 -26 25 -10 76 -11
179 -4 317 6 112 13 130 132 365 65 129 77 149 77 132 0 -20 -27 -88 -38 -97
-14 -10 -32 -61 -26 -72 4 -6 2 -13 -3 -17 -5 -3 -23 -33 -39 -66 -23 -48 -29
-75 -31 -135 -4 -130 -5 -140 -16 -140 -7 0 -7 -4 2 -9 8 -6 10 -14 5 -22 -5
-8 -12 -43 -16 -79 -3 -36 -10 -82 -14 -102 -4 -26 -3 -38 5 -38 6 0 11 13 11
29 0 16 4 31 9 33 9 3 32 114 35 161 0 9 4 17 9 17 4 0 5 5 2 10 -4 6 -11 8
-16 5 -5 -4 -9 1 -9 10 0 10 5 13 13 9 6 -4 9 -4 5 0 -3 4 -2 22 3 39 6 18 12
48 14 67 3 19 11 49 19 65 34 75 55 123 67 160 8 22 19 43 26 48 6 4 14 21 18
38 4 16 31 66 61 110 30 45 54 85 54 91 0 5 9 22 20 36 12 15 46 61 77 102
101 135 281 301 428 394 33 21 71 46 85 56 87 59 340 163 494 201 148 38 206
48 206 35 0 -7 3 -7 8 1 18 28 201 48 282 31 61 -13 290 -20 290 -8 0 5 -13
10 -29 10 -23 0 -28 4 -24 18 4 17 11 17 105 5 55 -7 119 -18 142 -24z m-941
-16 c-7 -2 -19 -2 -25 0 -7 3 -2 5 12 5 14 0 19 -2 13 -5z m-489 -431 c3 -5
-8 -6 -25 -4 -16 2 -29 6 -29 8 0 8 49 4 54 -4z m4 -49 c-10 -2 -28 -2 -40 0
-13 2 -5 4 17 4 22 1 32 -1 23 -4z m-40 -114 c1 -53 -3 -71 -14 -76 -8 -3 -17
-3 -21 0 -10 10 -9 101 1 128 17 48 34 23 34 -52z m82 36 c4 -5 11 -34 15 -62
l7 -53 -46 0 c-27 0 -46 5 -46 11 0 6 9 9 20 6 11 -3 20 -1 20 4 0 5 -10 10
-22 10 l-23 2 23 4 c12 2 22 9 22 14 0 5 -10 10 -22 10 -23 2 -23 2 -1 6 19 4
21 9 16 40 -4 24 -2 38 8 44 10 6 15 3 18 -9 2 -9 7 -21 11 -27z m196 30 c17
-13 16 -14 -13 -4 -34 11 -42 19 -20 19 7 0 22 -7 33 -15z m-46 -81 c-11 -33
-11 -39 6 -52 18 -13 18 -14 -3 -7 -14 4 -23 2 -23 -4 0 -6 5 -11 11 -11 6 0
3 -7 -5 -16 -9 -8 -24 -14 -34 -12 -26 5 -21 83 8 131 20 34 25 37 38 24 12
-13 12 -21 2 -53z m70 -23 c0 -57 -18 -114 -34 -108 -6 2 -10 13 -9 23 17 128
18 134 33 134 5 0 10 -22 10 -49z m-394 -52 c4 -6 12 -32 19 -58 11 -44 13
-46 46 -44 59 2 210 -17 245 -32 32 -13 44 -37 26 -49 -5 -3 -33 1 -63 9 -30
8 -91 15 -136 15 -92 0 -113 5 -113 29 0 23 -35 78 -59 90 -13 7 -28 8 -45 1
-34 -12 -33 3 0 29 29 23 69 28 80 10z m109 -48 c-10 -16 -25 -3 -25 22 0 20
1 20 16 5 9 -9 13 -21 9 -27z m65 9 c0 -11 -4 -20 -9 -20 -11 0 -22 26 -14 34
12 12 23 5 23 -14z m-210 -25 c0 -9 7 -30 16 -46 14 -29 14 -31 -2 -27 -23 4
-49 50 -41 71 8 21 27 22 27 2z m320 0 c0 -8 -4 -15 -10 -15 -5 0 -10 7 -10
15 0 8 5 15 10 15 6 0 10 -7 10 -15z m-382 -44 c14 -46 15 -61 4 -61 -12 0
-32 47 -32 75 0 38 15 30 28 -14z m452 24 c0 -8 -7 -15 -15 -15 -8 0 -15 7
-15 15 0 8 7 15 15 15 8 0 15 -7 15 -15z m373 -41 c-7 -3 -9 -12 -6 -20 3 -8
0 -14 -6 -14 -6 0 -11 2 -11 4 0 2 -3 11 -6 20 -5 12 0 16 17 15 13 0 19 -3
12 -5z m-458 -77 c36 -10 51 -19 53 -33 1 -10 21 -30 43 -42 40 -23 41 -25 35
-67 -6 -36 -4 -46 12 -57 24 -17 33 -64 22 -113 -16 -70 -161 -195 -227 -195
-18 0 -33 -4 -33 -9 0 -17 93 -71 122 -71 57 0 141 58 188 128 34 52 39 105
15 152 -9 17 -13 30 -10 30 12 0 45 -87 45 -120 0 -40 -15 -66 -74 -128 -58
-62 -121 -92 -171 -83 -22 4 -51 13 -64 21 -32 17 -117 96 -144 134 l-21 29
40 -26 c72 -49 143 -33 240 55 59 55 81 104 70 161 -8 41 -19 52 -64 62 -30 6
-31 8 -17 28 22 31 19 50 -12 79 -48 44 -73 52 -161 49 -83 -2 -107 3 -97 20
9 13 152 11 210 -4z m-85 -56 c0 -10 -130 -20 -136 -10 -8 14 12 19 73 19 35
0 63 -4 63 -9z m130 -31 c8 -5 11 -12 7 -16 -4 -4 -15 0 -24 9 -18 18 -8 23
17 7z m-200 -70 c4 -28 3 -50 -1 -50 -8 0 -19 51 -19 88 0 41 13 16 20 -38z
m55 5 c7 -49 3 -77 -9 -64 -9 10 -15 119 -7 119 5 0 13 -25 16 -55z m54 -13
c-1 -44 -3 -51 -9 -32 -12 37 -12 102 0 95 6 -3 10 -32 9 -63z m81 37 c0 -4
-6 -6 -14 -3 -10 4 -12 -2 -9 -20 3 -16 1 -26 -6 -26 -11 0 -16 52 -5 63 8 8
34 -3 34 -14z m-246 -15 c6 -24 2 -44 -8 -33 -9 11 -15 59 -7 59 5 0 12 -12
15 -26z m266 -144 c0 -41 -4 -47 -48 -78 -74 -52 -175 -12 -195 78 -8 34 7 60
25 42 17 -17 146 -15 178 3 30 16 40 6 40 -45z m237 28 c54 -103 80 -198 68
-246 -8 -32 -54 -106 -90 -144 -19 -21 -35 -28 -63 -28 l-37 1 32 14 c27 11
35 24 53 82 12 37 24 107 27 155 7 106 -6 144 -54 164 -18 8 -33 16 -33 19 0
3 19 5 43 5 34 0 45 -5 54 -22z m313 -116 c0 -5 9 -18 21 -31 14 -15 27 -20
41 -15 15 4 26 -1 42 -20 16 -20 38 -30 91 -41 131 -26 171 -29 178 -11 12 31
-4 42 -76 54 -40 6 -97 16 -127 21 l-55 9 63 1 c44 1 61 5 60 14 -2 6 2 11 7
10 30 -7 87 -31 97 -41 7 -7 21 -12 31 -12 53 0 104 -115 57 -127 -14 -4 -20
-14 -20 -34 0 -39 16 -36 62 11 29 32 38 49 38 76 0 39 11 38 33 -4 7 -15 29
-51 47 -80 38 -59 41 -91 20 -180 -10 -43 -16 -51 -31 -47 -9 3 -20 1 -24 -5
-3 -5 -11 -10 -16 -10 -6 0 2 16 17 35 22 29 26 42 21 76 -10 76 -61 109 -114
73 -19 -12 -38 -24 -43 -26 -15 -5 -25 -174 -11 -182 17 -11 13 -23 -9 -29
-17 -4 -20 -14 -20 -57 0 -28 -5 -61 -11 -72 -9 -17 -8 -23 5 -30 10 -5 15
-17 12 -26 -3 -10 15 -43 45 -82 84 -111 139 -249 139 -351 0 -36 -4 -48 -17
-52 -10 -2 -26 -8 -35 -12 -29 -12 -21 13 10 29 37 21 9 20 -31 0 -45 -23 -66
-44 -61 -59 8 -20 -36 -45 -81 -45 -28 0 -55 9 -86 28 -48 31 -119 105 -119
124 0 9 3 9 12 0 7 -7 20 -12 30 -12 9 0 21 -8 27 -17 5 -10 13 -14 17 -10 4
4 3 12 -3 18 -6 6 -10 17 -8 23 2 6 6 23 9 38 4 18 29 45 80 82 76 58 126 113
126 140 0 21 -17 20 -29 -1 -8 -14 -12 -15 -25 -4 -13 11 -16 11 -16 -1 0 -35
-186 -138 -250 -138 -11 0 -64 22 -118 49 -88 44 -99 47 -118 35 -12 -8 -28
-12 -37 -8 -14 5 -11 10 12 30 16 13 42 31 58 39 16 9 21 15 12 15 -9 0 -35
-13 -57 -30 -47 -34 -68 -37 -100 -14 -32 22 -30 91 3 148 l25 43 38 -18 c20
-10 68 -22 107 -26 62 -7 70 -10 76 -33 l7 -25 1 26 1 26 118 5 c179 9 244 36
172 73 -43 22 -90 20 -90 -5 0 -13 -9 -22 -27 -26 -16 -4 -34 -11 -40 -17 -8
-6 -13 -6 -13 0 0 5 -19 9 -42 9 -39 -1 -43 2 -46 24 -2 14 -9 31 -15 39 -7 8
-17 30 -24 50 l-11 36 1 -47 c1 -31 7 -48 15 -48 6 0 12 -11 12 -25 0 -24 -2
-26 -37 -19 -21 3 -54 14 -73 24 -19 10 -50 24 -67 30 -48 18 -40 28 15 19 64
-11 102 -11 102 0 0 4 -36 12 -80 15 -44 4 -80 11 -80 15 0 5 19 5 43 0 58
-11 107 -11 107 1 0 6 -21 11 -47 11 -27 1 -61 5 -78 10 -19 5 -2 6 48 3 52
-4 77 -2 77 5 0 6 -21 12 -47 12 -27 1 -61 5 -78 10 -18 5 1 6 49 2 57 -4 77
-3 72 6 -4 6 -33 11 -64 12 -31 0 -66 5 -77 10 -13 6 3 7 48 3 46 -4 67 -3 67
5 0 7 -23 11 -63 11 -59 0 -64 2 -80 29 -27 46 -21 69 29 120 67 67 103 124
120 188 8 31 24 72 36 91 17 28 19 38 10 53 -8 12 -8 19 -2 19 5 0 10 -4 10
-8z m-170 -87 c4 -55 0 -73 -19 -96 l-20 -24 15 44 c12 34 12 55 4 99 -5 31
-10 58 -9 61 2 15 27 -58 29 -84z m130 60 c-7 -8 -19 -15 -27 -15 -10 0 -8 6
8 19 27 22 38 19 19 -4z m490 -345 c-8 -5 -19 -10 -25 -10 -5 0 -3 5 5 10 8 5
20 10 25 10 6 0 3 -5 -5 -10z m170 -196 c-12 -43 -33 -100 -47 -126 -22 -40
-29 -46 -44 -38 -10 6 -24 10 -33 10 -24 0 -69 20 -62 27 4 4 26 7 49 8 35 0
44 5 64 34 28 42 41 100 23 111 -7 4 -30 11 -51 14 -30 5 -37 10 -32 22 5 13
16 15 57 11 28 -3 60 -2 71 3 11 4 22 6 23 5 2 -2 -6 -38 -18 -81z m-185 6 c3
-5 -3 -10 -14 -10 -12 0 -21 5 -21 10 0 6 6 10 14 10 8 0 18 -4 21 -10z m5
-46 c0 -2 -12 -4 -26 -4 -14 0 -23 4 -20 9 6 8 46 4 46 -5z m-17 -41 c-7 -2
-19 -2 -25 0 -7 3 -2 5 12 5 14 0 19 -2 13 -5z m66 -98 c2 -2 1 -11 -2 -19
-10 -25 -57 -8 -57 21 0 12 6 14 27 8 16 -4 30 -8 32 -10z m52 -48 c-5 -5 -17
-7 -26 -3 -14 5 -15 9 -5 21 10 12 16 13 27 4 9 -8 10 -16 4 -22z m-1 -27 c0
-5 -5 -10 -11 -10 -5 0 -7 5 -4 10 3 6 8 10 11 10 2 0 4 -4 4 -10z m54 -15 c4
-11 -2 -15 -21 -15 -21 0 -24 2 -13 15 7 8 16 15 20 15 4 0 10 -7 14 -15z
m-871 -26 c-5 -5 -7 -26 -5 -48 4 -38 7 -41 75 -75 40 -19 99 -42 132 -51 60
-17 105 -47 105 -71 0 -6 7 -17 15 -24 8 -7 15 -25 15 -39 0 -37 -43 -121 -80
-156 -25 -24 -37 -28 -80 -27 -27 0 -55 4 -60 7 -17 10 -11 25 10 25 11 0 20
4 20 9 0 19 -107 47 -140 36 -26 -8 -26 -23 2 -27 41 -6 32 -28 -11 -28 -36 0
-43 4 -52 28 -18 44 -23 224 -10 294 17 83 50 170 63 162 5 -4 6 -10 1 -15z
m887 -66 c0 -27 -15 -30 -28 -6 -12 21 8 60 20 40 4 -7 8 -22 8 -34z m-726
-29 c23 -9 20 -34 -4 -34 -13 0 -20 7 -20 20 0 22 1 23 24 14z m-1568 -129
c-2 -5 -7 4 -11 20 -4 17 -12 35 -17 42 -5 7 -6 22 -2 35 7 19 10 15 21 -32 7
-30 11 -59 9 -65z m34 -96 c0 -5 -4 -9 -10 -9 -5 0 -10 7 -10 16 0 8 5 12 10
9 6 -3 10 -10 10 -16z m2130 -34 c-7 -8 -16 -12 -21 -9 -13 8 -1 24 18 24 13
0 13 -3 3 -15z m160 -37 c26 -43 80 -193 80 -222 0 -17 14 -32 53 -57 37 -24
58 -47 74 -80 39 -81 39 -90 -6 -146 -69 -88 -220 -191 -261 -178 -60 19 -251
330 -211 343 6 2 11 8 11 14 0 6 -7 8 -15 4 -10 -3 -17 3 -21 20 -4 14 -4 28
0 31 3 3 -2 11 -10 18 -14 9 -14 15 -4 31 11 18 9 26 -13 60 -14 21 -29 59
-33 84 l-6 45 30 -32 c31 -34 68 -43 89 -22 6 6 32 15 57 20 49 9 129 57 139
84 10 24 26 18 47 -17z m-827 -73 c-4 -15 -36 -12 -41 3 -3 9 3 13 19 10 13
-1 23 -7 22 -13z m-108 -70 c28 -13 65 -19 120 -20 44 -1 90 -7 102 -13 19
-10 24 -9 36 8 22 31 16 -642 -6 -719 -9 -30 -22 -58 -29 -63 -48 -32 -408 86
-439 144 -19 35 -1 144 32 204 40 71 55 83 74 58 8 -10 12 -27 9 -36 -4 -13 2
-19 23 -24 15 -4 41 -13 56 -21 59 -29 237 -19 237 14 0 8 10 28 21 45 30 42
13 53 -40 27 -28 -13 -47 -31 -54 -50 -14 -37 -23 -40 -100 -29 -104 15 -117
23 -117 70 0 22 -4 40 -10 40 -25 0 -50 41 -50 84 0 38 30 208 46 258 6 21 34
50 43 45 3 -1 24 -12 46 -22z m-1415 -1145 c0 -47 -2 -50 -25 -50 l-25 0 0
-275 0 -275 25 0 c23 0 25 -3 25 -50 l0 -50 -50 0 c-41 0 -56 5 -75 25 l-25
24 0 324 0 324 25 27 c20 21 33 26 75 26 l50 0 0 -50z m174 24 c23 -24 26 -34
26 -100 l0 -74 -50 0 -50 0 0 50 c0 47 -2 50 -25 50 -23 0 -25 3 -25 50 l0 50
49 0 c39 0 53 -5 75 -26z m399 -321 c32 -192 61 -361 64 -376 l6 -28 -54 3
-53 3 -58 345 c-31 190 -59 357 -62 373 -5 27 -5 27 47 27 l52 0 58 -347z
m267 22 l0 -325 25 0 c23 0 25 -3 25 -50 l0 -50 -75 0 -75 0 0 375 0 375 50 0
50 0 0 -325z m623 -22 c32 -192 61 -361 64 -376 l6 -28 -54 3 -53 3 -57 340
c-32 187 -61 355 -64 373 l-6 32 53 0 53 0 58 -347z m307 297 c0 -47 -2 -50
-25 -50 l-25 0 0 -275 0 -275 25 0 c23 0 25 -3 25 -50 l0 -50 -49 0 c-38 0
-56 6 -75 23 l-25 22 -1 315 c-1 173 -1 320 -1 326 1 6 10 23 22 38 18 22 28
26 75 26 l54 0 0 -50z m171 20 c28 -28 30 -33 27 -102 l-3 -73 -50 0 -50 0 -1
40 c-2 64 -3 65 -29 65 -23 0 -25 3 -25 50 l0 50 51 0 c43 0 55 -5 80 -30z
m519 -45 l0 -75 -55 0 c-52 0 -55 1 -55 25 0 25 0 25 -95 25 -95 0 -95 0 -95
-25 0 -24 -3 -25 -55 -25 l-55 0 0 75 0 75 205 0 205 0 0 -75z m250 20 c0 -52
-1 -55 -25 -55 l-25 0 0 -110 0 -110 75 0 75 0 0 -50 0 -50 -75 0 -75 0 0
-110 0 -110 25 0 c23 0 25 -3 25 -50 l0 -50 -75 0 -75 0 0 375 0 375 75 0 75
0 0 -55z m200 -20 l0 -75 -49 0 c-40 0 -50 4 -54 19 -2 11 -15 21 -28 23 -20
2 -25 10 -27 42 -5 63 -1 66 83 66 l75 0 0 -75z m240 25 c0 -47 -2 -50 -25
-50 l-25 0 0 -275 0 -275 25 0 c23 0 25 -3 25 -50 l0 -50 -49 0 c-34 0 -56 6
-75 21 l-26 20 0 328 c0 317 1 329 21 355 18 22 28 26 75 26 l54 0 0 -50z
m171 21 c27 -27 29 -35 29 -100 l0 -71 -50 0 -50 0 0 50 c0 47 -2 50 -25 50
-23 0 -25 3 -25 50 l0 50 46 0 c37 0 51 -5 75 -29z m279 -21 c0 -47 -2 -50
-25 -50 l-25 0 0 -275 0 -275 25 0 c23 0 25 -3 25 -50 l0 -50 -75 0 -75 0 0
375 0 375 75 0 75 0 0 -50z m250 -325 l0 -375 -75 0 -75 0 0 50 c0 47 2 50 25
50 l25 0 -2 273 -3 272 -22 3 c-20 3 -23 9 -23 53 l0 49 75 0 75 0 0 -375z
m-1540 -75 l0 -300 -50 0 -50 0 0 300 0 300 50 0 50 0 0 -300z m-1890 118 c17
-99 20 -136 12 -172 -9 -41 -8 -46 8 -46 15 0 19 -10 22 -50 3 -49 2 -50 -24
-50 -21 0 -29 -6 -33 -25 -3 -14 -7 -36 -10 -50 -5 -23 -10 -25 -56 -25 -50 0
-51 1 -47 28 30 191 94 530 99 524 4 -4 17 -64 29 -134z m890 0 c17 -99 20
-136 12 -172 -9 -41 -8 -46 8 -46 15 0 19 -10 22 -50 3 -49 2 -50 -24 -50 -21
0 -29 -6 -33 -25 -17 -81 -11 -75 -66 -75 -50 0 -51 1 -47 28 30 191 94 530
99 524 4 -4 17 -64 29 -134z m2390 -48 l0 -50 -50 0 -50 0 0 50 0 50 50 0 50
0 0 -50z m-3500 -179 c0 -133 -1 -139 -25 -165 -20 -21 -33 -26 -75 -26 l-50
0 0 50 c0 47 2 50 25 50 24 0 25 3 25 60 0 57 -1 60 -25 60 -24 0 -25 3 -25
55 l0 55 75 0 75 0 0 -139z m1770 -60 c0 -60 -3 -74 -26 -100 -22 -27 -32 -31
-75 -31 l-49 0 0 50 c0 47 2 50 25 50 23 0 25 3 25 50 l0 50 50 0 50 0 0 -69z
m1380 0 c0 -60 -3 -74 -26 -100 -22 -27 -32 -31 -75 -31 l-49 0 0 50 c0 47 2
50 25 50 23 0 25 3 25 50 l0 50 50 0 50 0 0 -69z m-440 -56 l0 -75 -75 0 -75
0 0 50 c0 47 2 50 25 50 20 0 25 5 25 25 0 23 3 25 50 25 l50 0 0 -75z m-1820
-25 l0 -50 -75 0 -75 0 0 50 0 50 75 0 75 0 0 -50z"/>
<path d="M2210 4820 c-14 -4 -37 -5 -52 -3 -23 5 -145 -43 -135 -53 1 -2 32 6
67 17 96 30 209 35 310 15 46 -10 97 -24 113 -32 16 -9 31 -13 34 -10 3 3 -6
11 -21 17 -21 10 -24 15 -13 27 10 13 9 14 -7 5 -12 -7 -31 -7 -51 -2 -77 21
-204 31 -245 19z"/>
<path d="M1985 4750 c-3 -6 1 -7 9 -4 18 7 21 14 7 14 -6 0 -13 -4 -16 -10z"/>
<path d="M2165 4720 c-33 -6 -90 -19 -126 -30 -51 -15 -68 -25 -78 -46 -26
-59 37 -94 212 -117 101 -13 234 0 331 32 64 21 76 32 76 73 0 20 -8 31 -30
43 -75 39 -273 62 -385 45z m2 -95 c-8 -16 -13 -20 -15 -10 -2 7 -11 16 -20
18 -13 3 -12 6 8 14 33 14 40 8 27 -22z m237 16 c3 -5 -5 -16 -19 -25 -14 -9
-26 -14 -26 -11 -4 17 -5 31 -2 38 6 10 41 9 47 -2z"/>
<path d="M408 3455 c-6 -30 -3 -43 8 -33 3 4 4 19 2 35 l-3 28 -7 -30z"/>
<path d="M3890 2480 c0 -5 7 -10 15 -10 8 0 15 5 15 10 0 6 -7 10 -15 10 -8 0
-15 -4 -15 -10z"/>
<path d="M3830 2400 c0 -6 7 -10 15 -10 8 0 15 2 15 4 0 2 -7 6 -15 10 -8 3
-15 1 -15 -4z"/>
<path d="M1831 3855 c-1 -11 -4 -31 -6 -45 l-6 -25 11 25 c6 13 9 33 7 45 -4
19 -4 19 -6 0z"/>
<path d="M2405 3490 c-3 -5 3 -10 14 -10 11 0 22 -3 24 -7 3 -5 -24 -6 -60 -5
-102 6 -143 -4 -184 -43 -32 -30 -36 -38 -30 -67 l7 -33 132 -5 c120 -5 132
-3 132 12 0 16 -12 17 -112 15 -107 -2 -113 -1 -116 18 -4 32 38 64 99 75 65
13 125 5 138 -18 5 -9 11 -15 13 -12 23 30 38 64 31 70 -14 13 -81 21 -88 10z"/>
<path d="M2120 3120 c-9 -6 -10 -10 -3 -10 6 0 15 5 18 10 8 12 4 12 -15 0z"/>
<path d="M2078 3113 c7 -3 16 -2 19 1 4 3 -2 6 -13 5 -11 0 -14 -3 -6 -6z"/>
<path d="M2227 3089 c-48 -5 -102 -12 -120 -17 l-31 -8 86 -47 c47 -26 93 -47
101 -47 17 0 157 91 177 115 11 13 4 15 -56 14 -38 -1 -109 -6 -157 -10z m170
-15 c-3 -3 -12 -4 -19 -1 -8 3 -5 6 6 6 11 1 17 -2 13 -5z m-92 -14 c-27 -5
-79 -8 -115 -7 l-65 0 65 7 c36 4 88 7 115 7 l50 0 -50 -7z m43 -17 c-10 -2
-26 -2 -35 0 -10 3 -2 5 17 5 19 0 27 -2 18 -5z m-105 -10 c-13 -2 -33 -2 -45
0 -13 2 -3 4 22 4 25 0 35 -2 23 -4z"/>
<path d="M2471 2434 c0 -11 3 -14 6 -6 3 7 2 16 -1 19 -3 4 -6 -2 -5 -13z"/>
<path d="M2510 2372 c0 -13 -6 -22 -16 -22 -22 0 -12 -24 12 -29 10 -2 33 -16
50 -31 28 -24 39 -27 85 -24 30 2 54 4 54 4 0 1 8 3 18 5 21 4 87 47 87 56 0
4 -21 -4 -47 -17 -57 -29 -75 -30 -98 -4 -11 13 -31 20 -52 20 -26 0 -41 8
-64 32 -27 30 -29 31 -29 10z"/>
<path d="M2600 2210 c-6 -11 -8 -20 -6 -20 3 0 10 9 16 20 6 11 8 20 6 20 -3
0 -10 -9 -16 -20z"/>
</g>
</svg>
